<?xml version="1.0" standalone="no"?>
<!DOCTYPE svg PUBLIC "-//W3C//DTD SVG 20010904//EN"
 "http://www.w3.org/TR/2001/REC-SVG-20010904/DTD/svg10.dtd">
<svg version="1.0" xmlns="http://www.w3.org/2000/svg"
 width="1024.000000pt" height="1024.000000pt" viewBox="0 0 1024.000000 1024.000000"
 preserveAspectRatio="xMidYMid meet">
<metadata>
Created by potrace 1.16, written by Peter Selinger 2001-2019
</metadata>
<g transform="translate(0.000000,1024.000000) scale(0.100000,-0.100000)"
fill="#000000" stroke="none">
<path d="M4830 7236 c-361 -159 -595 -376 -757 -701 -130 -260 -205 -545 -258
-990 -14 -115 -34 -266 -46 -335 -92 -575 -267 -909 -583 -1115 -114 -74 -293
-150 -402 -171 -19 -3 -36 -10 -39 -14 -4 -7 997 -704 1029 -716 8 -3 59 13
113 36 405 172 654 433 826 866 70 174 142 479 167 704 17 142 13 137 62 97
57 -45 224 -156 373 -247 536 -325 802 -568 941 -855 107 -221 136 -477 85
-748 -4 -26 -7 -47 -5 -47 2 0 246 144 543 321 l539 320 7 86 c14 158 -10 361
-61 531 -124 411 -465 774 -1067 1134 -181 109 -389 250 -512 349 -179 145
-283 257 -380 414 l-49 78 48 44 c116 104 295 198 479 250 92 26 95 27 74 42
-41 30 -687 476 -851 589 -90 61 -172 112 -182 112 -11 0 -53 -15 -94 -34z"/>
</g>
</svg>
